<svg width="370" height="69" viewBox="0 0 370 69" fill="none" xmlns="http://www.w3.org/2000/svg">
<path d="M96.6055 32.0783C91.8852 28.813 83.9575 29.9125 78.7496 31.0532C75.1949 31.8303 71.6981 32.8388 68.1848 33.773C64.3739 34.7815 63.0182 35.3023 59.6371 33.0951C54.1811 29.5322 48.7665 25.8866 43.3436 22.2658C52.9907 18.9178 62.6379 15.7021 72.4339 12.784C77.1458 11.3787 82.2133 9.2624 87.0989 8.68373C90.298 8.31174 90.4965 9.67573 92.1084 12.1061C93.1583 13.6933 96.622 16.7685 97.5727 12.9411C98.1266 10.7091 95.134 8.46054 93.5799 7.33627C87.0906 2.64083 78.9397 6.11281 72.0453 8.31174C63.1918 11.1472 54.3961 14.1645 45.5756 17.1157C43.6329 17.7688 40.6239 19.3394 38.5572 18.9509C36.9121 18.645 35.1927 17.2066 33.6055 16.5122C29.6292 14.7845 25.3471 13.9165 21.1063 13.1147C16.8325 12.3128 12.6413 11.6515 8.30131 12.4616C5.51546 12.9824 0.563745 13.9165 0.067747 17.248C-0.825049 23.2247 7.31758 26.9365 12.0461 27.0853C16.4026 27.2258 21.0237 26.2669 25.3388 25.7047C29.034 25.2253 33.7129 23.7951 37.4412 24.1671C40.8884 24.5143 44.1702 28.0442 46.9313 30.0613C50.519 32.6818 54.0985 35.3271 57.6779 37.9559C54.2886 39.4769 50.9075 41.0311 47.5017 42.5273C44.0793 44.0236 42.798 44.4452 39.4252 42.9076C33.1343 40.0391 26.4631 37.3772 19.3538 38.7329C13.0794 39.9233 15.1378 45.7513 19.2629 48.1486C21.9578 49.711 23.0573 49.6945 25.9836 50.0252C28.8439 50.3558 31.4479 52.2985 34.4239 52.687C38.0612 53.1582 40.5743 51.4222 43.9388 51.2652C46.89 51.1246 49.4444 53.7121 51.7011 55.3406C57.1406 59.259 62.4064 63.1443 68.9867 64.9134C71.8965 65.6987 79.353 67.8563 80.0557 63.2683C80.3781 61.1851 78.948 58.4737 77.1128 57.6057C76.1869 57.1675 75.0048 56.9526 74.0045 57.3329C71.8717 58.1347 72.5083 58.4571 73.1448 60.5321C66.6637 60.5321 60.6952 56.8865 55.5203 53.2244C54.4043 52.439 49.9817 50.1078 50.4033 48.3553C50.8001 46.702 56.7851 44.8916 58.1326 44.2551C61.7451 42.5356 63.448 41.6924 67.3664 42.7671C70.888 43.7343 74.3682 44.8503 77.8733 45.8423C83.8914 47.5452 90.8271 48.4049 96.5063 44.8833C101.218 41.9735 101.078 35.17 96.6055 32.0783ZM15.2618 24.2829C12.4346 24.3986 2.928 23.2165 3.11813 19.108C3.33307 14.6026 14.7493 15.1234 17.6839 15.3962C20.6765 15.669 23.5367 16.5122 26.3887 17.4381C28.6951 18.1821 33.2252 18.6864 33.0764 21.2573C27.2319 22.3815 21.2138 24.0349 15.2618 24.2829ZM24.5949 47.1897C22.2223 46.7846 16.1381 46.1895 18.2626 42.8911C20.1639 39.9399 25.0495 41.6015 27.67 42.1553C29.9682 42.6431 37.5404 43.85 37.1601 46.2887C33.1012 47.6361 28.8108 47.9089 24.5949 47.1897ZM97.4652 39.0719C96.0764 44.1889 87.3965 43.6681 83.5194 43.1556C80.5765 42.7588 77.6997 41.8908 74.856 41.0641C73.6408 40.7087 71.4832 40.5599 70.5573 39.8159C69.4827 38.9479 69.7059 39.2951 69.7472 37.5839C75.6496 36.0711 81.6512 33.9796 87.7354 33.4423C90.9925 33.153 98.854 33.9548 97.4652 39.0719Z" fill="#FF471F"/>
<path d="M156.653 67.267H143.941C139.28 67.267 134.936 65.4661 131.758 62.2881C128.475 59.0042 126.78 54.767 126.78 50.1059V29.9788H120V19.0678H126.78V0H139.386V19.0678H153.475V29.9788H139.386V49.8941C139.386 52.5424 141.716 54.9788 144.047 54.9788H153.263L156.653 67.267ZM187.797 68.4322C181.653 68.4322 175.932 66.2076 171.801 62.0763C167.458 57.9449 165.127 52.3305 165.127 46.2924V18.75H178.475V46.2924C178.475 51.2712 182.606 55.2966 187.797 55.2966C192.987 55.2966 197.225 51.2712 197.225 46.2924V18.75H210.572V46.2924C210.572 52.2246 208.136 57.839 203.792 62.0763C199.555 66.2076 193.941 68.4322 187.797 68.4322ZM270 67.267H256.653V41.3136C256.653 35.5932 252.097 31.1441 246.377 31.1441C240.869 31.1441 236.102 35.6992 236.102 41.3136V67.267H222.86V18.75H236.102V22.2458C239.386 18.9619 242.881 17.7966 246.377 17.7966C252.733 17.7966 258.665 20.2331 263.114 24.5763C267.564 29.1314 270 35.0636 270 41.3136V67.267ZM302.415 68.4322H302.309C299.237 68.4322 296.059 67.6907 293.093 66.3136C290.339 65.1483 287.797 63.2415 285.466 60.8051C281.758 56.7797 279.534 51.4831 279.004 45.9746C278.898 45.0212 278.792 44.0678 278.792 43.0085C278.792 40.8898 279.11 38.6653 279.64 36.4407C280.593 32.2034 282.606 28.2839 285.466 25.3178C287.585 22.9873 290.021 21.1864 293.093 19.7034C295.953 18.3263 299.131 17.6907 302.415 17.6907C305.805 17.6907 308.877 18.3263 311.737 19.7034C314.915 21.1864 317.458 23.0932 319.364 25.3178C322.119 28.2839 324.237 32.0975 325.297 36.4407C325.826 38.4534 326.038 40.572 326.038 43.0085V45.4449H290.445L290.551 46.1864C291.928 52.7542 296.907 57.5212 302.415 57.5212H302.521C305.593 57.3093 308.983 55.4026 310.996 53.7076L312.161 52.7542L320.953 60.3814L319.364 61.7585C318.199 62.8178 316.716 64.089 315.127 64.9364H315.021C311.208 67.161 307.076 68.3263 302.415 68.4322ZM302.415 28.7076C298.284 28.7076 294.153 31.5678 291.928 36.017L291.504 36.8644H313.432L313.008 36.017C310.572 31.4619 306.547 28.7076 302.415 28.7076ZM351.992 67.6907C350.508 67.6907 348.92 67.4788 347.013 67.161C341.716 66.1017 336.737 63.7712 332.818 60.2754L331.229 59.0042L339.174 50.2119L340.657 51.589C345.318 55.5085 349.131 56.25 351.568 56.25C353.369 56.25 354.64 56.0381 355.911 55.4025C357.5 54.767 358.242 53.7076 358.242 52.2246C358.242 50.9534 357.5 49.3644 351.25 48.3051C345.53 47.1398 341.928 45.9746 340.233 45.0212C338.008 43.75 336.208 42.0551 334.936 39.9364C333.665 37.8178 333.03 35.4873 333.03 32.839C333.03 30.0847 333.877 27.4364 335.572 25C336.949 22.9873 338.962 21.3983 341.928 19.9153C344.364 18.75 347.119 18.2203 350.403 18.2203C351.568 18.2203 352.733 18.3263 353.792 18.4322C358.453 19.1737 363.114 21.1864 366.928 24.1525L368.517 25.4237L360.996 34.1102L359.513 32.9449C355.805 29.9788 352.627 29.4492 350.72 29.4492C349.343 29.4492 348.072 29.661 346.907 30.1907C345.53 30.9322 344.788 32.0975 344.788 32.839C344.788 34.322 345.847 35.3814 351.356 36.6525C358.559 38.3475 360.89 39.1949 362.373 39.8305C365.339 41.5254 366.61 42.9025 367.67 44.2797C369.258 46.5042 370 49.2585 370 52.2246C370 55.2966 369.153 58.0509 367.564 60.2754C365.975 62.5 363.856 64.4068 360.784 65.8898C358.347 67.0551 355.17 67.6907 351.992 67.6907Z" fill="black"/>
</svg>
